<svg width="321" height="66" viewBox="0 0 321 66" fill="none" xmlns="http://www.w3.org/2000/svg">
<g clip-path="url(#clip0_7384_155)">
<mask id="mask0_7384_155" style="mask-type:luminance" maskUnits="userSpaceOnUse" x="0" y="2" width="59" height="62">
<path d="M0 2.08545H58.4219V63.9131H0V2.08545Z" fill="white"/>
</mask>
<g mask="url(#mask0_7384_155)">
<path d="M58.1801 12.353L56.0792 45.3425L35.9928 2.08545L58.1801 12.353ZM44.2675 55.0102L29.0902 63.6702L13.9125 55.0102L16.9995 47.529H41.1806L44.2675 55.0102ZM29.0902 18.5051L37.0431 37.8402H21.1369L29.0902 18.5051ZM2.07935 45.3425L0 12.353L22.1872 2.08545L2.07935 45.3425Z" fill="url(#paint0_linear_7384_155)"/>
</g>
</g>
<path d="M80.2976 22.9282H75.901V20.9633H80.1502C81.6648 20.9633 82.9175 20.6726 83.9081 20.0914C84.907 19.5101 85.652 18.6791 86.1432 17.5983C86.6345 16.5176 86.8801 15.2322 86.8801 13.7422C86.8801 12.2685 86.6386 10.9995 86.1555 9.93512C85.6725 8.8626 84.9479 8.03978 83.9818 7.46668C83.0239 6.88539 81.8286 6.59474 80.3958 6.59474H75.8028V4.62981H80.5432C82.3198 4.62981 83.8385 4.99414 85.0994 5.7228C86.3684 6.45146 87.3386 7.49943 88.0099 8.86669C88.6813 10.2258 89.0169 11.8509 89.0169 13.7422C89.0169 15.6498 88.6772 17.2913 87.9976 18.6668C87.3181 20.034 86.3275 21.0861 85.0257 21.8229C83.7321 22.5598 82.1561 22.9282 80.2976 22.9282ZM76.8589 4.62981V22.9282H74.6484V4.62981H76.8589ZM97.024 23.223C95.7059 23.223 94.5638 22.9282 93.5977 22.3387C92.6398 21.7493 91.9029 20.9264 91.3871 19.8703C90.8714 18.806 90.6135 17.5738 90.6135 16.1738C90.6135 14.7656 90.8673 13.5252 91.3749 12.4527C91.8825 11.3802 92.5948 10.541 93.5117 9.93512C94.4369 9.32927 95.5176 9.02634 96.7539 9.02634C97.4661 9.02634 98.1743 9.14506 98.8784 9.38248C99.5825 9.61991 100.221 10.0047 100.794 10.5369C101.376 11.069 101.838 11.7731 102.182 12.6492C102.526 13.5252 102.698 14.6018 102.698 15.879V16.7878H92.1117V14.9703H101.556L100.585 15.658C100.585 14.741 100.442 13.9264 100.156 13.2141C99.8691 12.5018 99.4393 11.941 98.8662 11.5316C98.3012 11.1223 97.5971 10.9176 96.7539 10.9176C95.9106 10.9176 95.186 11.1264 94.5802 11.5439C93.9825 11.9533 93.524 12.4895 93.2047 13.1527C92.8854 13.8159 92.7258 14.5281 92.7258 15.2896V16.4931C92.7258 17.5329 92.9059 18.413 93.2661 19.1335C93.6263 19.8539 94.1299 20.4025 94.7767 20.7791C95.4234 21.1475 96.1726 21.3317 97.024 21.3317C97.5726 21.3317 98.072 21.2539 98.5223 21.0984C98.9726 20.9346 99.3615 20.6931 99.689 20.3738C100.016 20.0463 100.266 19.6452 100.438 19.1703L102.477 19.7598C102.264 20.4475 101.904 21.0534 101.396 21.5773C100.897 22.0931 100.274 22.4984 99.5293 22.7931C98.7843 23.0797 97.9492 23.223 97.024 23.223ZM114.389 12.293L112.498 12.8088C112.318 12.3422 112.007 11.9001 111.565 11.4825C111.131 11.0568 110.451 10.8439 109.526 10.8439C108.691 10.8439 107.995 11.0404 107.438 11.4334C106.881 11.8182 106.603 12.3012 106.603 12.8825C106.603 13.4065 106.791 13.824 107.168 14.1352C107.553 14.4463 108.15 14.7001 108.961 14.8966L111 15.3878C112.22 15.6825 113.128 16.1369 113.726 16.751C114.332 17.365 114.635 18.1469 114.635 19.0966C114.635 19.8826 114.41 20.5867 113.959 21.2089C113.509 21.8311 112.883 22.3224 112.08 22.6826C111.278 23.0428 110.345 23.223 109.28 23.223C107.88 23.223 106.722 22.9159 105.805 22.3019C104.896 21.6879 104.319 20.7995 104.073 19.637L106.063 19.1457C106.251 19.8826 106.611 20.4352 107.143 20.8036C107.684 21.1721 108.388 21.3563 109.256 21.3563C110.23 21.3563 111.008 21.1475 111.589 20.73C112.179 20.3042 112.473 19.8007 112.473 19.2194C112.473 18.2533 111.794 17.6065 110.435 17.279L108.15 16.7387C106.89 16.4358 105.964 15.9732 105.375 15.351C104.786 14.7287 104.491 13.9469 104.491 13.0053C104.491 12.2275 104.708 11.5398 105.142 10.9421C105.584 10.3445 106.186 9.87781 106.947 9.54214C107.708 9.19827 108.568 9.02634 109.526 9.02634C110.893 9.02634 111.962 9.32927 112.731 9.93512C113.509 10.5328 114.062 11.3188 114.389 12.293ZM120.677 23.2475C119.809 23.2475 119.019 23.0838 118.307 22.7563C117.594 22.4206 117.029 21.9376 116.612 21.3072C116.194 20.6767 115.986 19.9153 115.986 19.0229C115.986 18.237 116.141 17.6024 116.452 17.1194C116.763 16.6282 117.177 16.2434 117.693 15.965C118.217 15.6784 118.79 15.4656 119.412 15.3264C120.042 15.1872 120.677 15.0767 121.315 14.9948C122.151 14.8884 122.826 14.8065 123.342 14.7492C123.866 14.6919 124.247 14.5936 124.484 14.4545C124.73 14.3153 124.852 14.0778 124.852 13.7422V13.6685C124.852 12.7925 124.611 12.1129 124.128 11.6299C123.653 11.1386 122.928 10.893 121.954 10.893C120.955 10.893 120.169 11.1141 119.596 11.5562C119.023 11.9901 118.622 12.4568 118.393 12.9562L116.379 12.2439C116.739 11.4088 117.218 10.7579 117.815 10.2913C118.421 9.82459 119.076 9.49711 119.78 9.3088C120.493 9.12049 121.193 9.02634 121.88 9.02634C122.323 9.02634 122.83 9.07956 123.403 9.18599C123.976 9.28424 124.533 9.49711 125.073 9.82459C125.622 10.1439 126.072 10.631 126.424 11.286C126.785 11.9328 126.965 12.8006 126.965 13.8895V22.9282H124.852V21.0615H124.754C124.615 21.3563 124.378 21.6756 124.042 22.0194C123.706 22.3551 123.26 22.6458 122.703 22.8914C122.155 23.1288 121.479 23.2475 120.677 23.2475ZM120.996 21.3563C121.831 21.3563 122.535 21.1925 123.108 20.865C123.682 20.5376 124.116 20.1159 124.41 19.6001C124.705 19.0761 124.852 18.5317 124.852 17.9668V16.0264C124.762 16.1328 124.566 16.2311 124.263 16.3211C123.968 16.403 123.624 16.4767 123.231 16.5422C122.847 16.6077 122.47 16.665 122.101 16.7141C121.733 16.7551 121.438 16.7878 121.217 16.8124C120.669 16.8861 120.157 17.0048 119.682 17.1685C119.207 17.3241 118.822 17.5574 118.528 17.8685C118.241 18.1796 118.098 18.6054 118.098 19.1457C118.098 19.8744 118.368 20.427 118.908 20.8036C119.457 21.1721 120.153 21.3563 120.996 21.3563ZM135.758 9.19827V10.9913H128.365V9.19827H135.758ZM130.575 22.9282V7.30703C130.575 6.52105 130.759 5.86608 131.128 5.3421C131.504 4.81812 131.988 4.42513 132.577 4.16314C133.166 3.90115 133.785 3.77015 134.431 3.77015C134.955 3.77015 135.381 3.81518 135.709 3.90524C136.044 3.98711 136.29 4.06489 136.445 4.13858L135.831 5.95614C135.725 5.9152 135.578 5.87017 135.389 5.82105C135.209 5.76374 134.964 5.73508 134.652 5.73508C133.957 5.73508 133.449 5.9152 133.13 6.27544C132.819 6.62749 132.663 7.14328 132.663 7.82282V22.9282H130.575ZM137.551 22.9282V9.19827H139.638V22.9282H137.551ZM138.607 6.91404C138.198 6.91404 137.845 6.77486 137.551 6.49649C137.256 6.21813 137.109 5.88245 137.109 5.48947C137.109 5.09648 137.256 4.7608 137.551 4.48244C137.845 4.20407 138.198 4.06489 138.607 4.06489C139.016 4.06489 139.368 4.20407 139.663 4.48244C139.958 4.7608 140.105 5.09648 140.105 5.48947C140.105 5.88245 139.958 6.21813 139.663 6.49649C139.368 6.77486 139.016 6.91404 138.607 6.91404ZM147.891 23.223C146.655 23.223 145.57 22.9282 144.637 22.3387C143.703 21.7493 142.975 20.9224 142.451 19.858C141.935 18.7937 141.677 17.5574 141.677 16.1492C141.677 14.7165 141.935 13.4679 142.451 12.4036C142.975 11.331 143.703 10.5 144.637 9.91056C145.57 9.32108 146.655 9.02634 147.891 9.02634C149.136 9.02634 150.225 9.32108 151.158 9.91056C152.091 10.5 152.82 11.331 153.344 12.4036C153.868 13.4679 154.13 14.7165 154.13 16.1492C154.13 17.5574 153.868 18.7937 153.344 19.858C152.82 20.9224 152.091 21.7493 151.158 22.3387C150.225 22.9282 149.136 23.223 147.891 23.223ZM147.891 21.3317C148.841 21.3317 149.619 21.0902 150.225 20.6071C150.83 20.1241 151.281 19.4896 151.575 18.7036C151.87 17.9095 152.018 17.058 152.018 16.1492C152.018 15.2241 151.87 14.3644 151.575 13.5702C151.281 12.7761 150.83 12.1375 150.225 11.6544C149.619 11.1632 148.841 10.9176 147.891 10.9176C146.958 10.9176 146.188 11.1632 145.582 11.6544C144.977 12.1375 144.526 12.7761 144.231 13.5702C143.937 14.3644 143.789 15.2241 143.789 16.1492C143.789 17.058 143.937 17.9095 144.231 18.7036C144.526 19.4896 144.977 20.1241 145.582 20.6071C146.188 21.0902 146.958 21.3317 147.891 21.3317Z" fill="white"/>
<path d="M78.048 58.0723H73.2413L80.5725 36.8202H86.3634L93.6804 58.0723H88.888L83.5535 41.6696H83.3824L78.048 58.0723ZM77.7627 49.7141H89.1304V53.2228H77.7627V49.7141ZM99.6138 48.8583V58.0723H95.2065V42.1261H99.5425V44.9644H99.6994C100.061 44.0231 100.636 43.2814 101.425 42.7394C102.214 42.1974 103.203 41.9264 104.392 41.9264C105.495 41.9264 106.455 42.1689 107.273 42.6538C108.1 43.1387 108.742 43.8281 109.199 44.722C109.655 45.6158 109.883 46.6855 109.883 47.9312V58.0723H105.476V48.7156C105.476 47.7457 105.224 46.985 104.72 46.4335C104.216 45.8725 103.522 45.592 102.638 45.592C102.048 45.592 101.525 45.7251 101.069 45.9914C100.612 46.2481 100.256 46.619 99.9989 47.1039C99.7422 47.5888 99.6138 48.1736 99.6138 48.8583ZM119.625 64.3766C117.476 64.3766 115.793 63.9487 114.576 63.0929C113.359 62.2466 112.617 61.1911 112.351 59.9265L116.43 59.3845C116.554 59.7078 116.749 60.0073 117.015 60.2831C117.281 60.5588 117.638 60.7775 118.085 60.9392C118.532 61.1103 119.078 61.1959 119.725 61.1959C120.685 61.1959 121.479 60.9629 122.107 60.497C122.734 60.0406 123.048 59.2656 123.048 58.1721V55.2482H122.863C122.673 55.6856 122.383 56.104 121.993 56.5033C121.603 56.9027 121.104 57.226 120.495 57.4732C119.887 57.7204 119.159 57.8441 118.313 57.8441C117.115 57.8441 116.026 57.5683 115.047 57.0168C114.077 56.4558 113.297 55.6 112.707 54.4494C112.127 53.2989 111.837 51.844 111.837 50.0849C111.837 48.2687 112.132 46.7568 112.722 45.5492C113.321 44.3416 114.11 43.4383 115.089 42.8392C116.069 42.2307 117.143 41.9264 118.313 41.9264C119.207 41.9264 119.953 42.0785 120.552 42.3828C121.161 42.6776 121.655 43.0484 122.036 43.4953C122.416 43.9422 122.701 44.3844 122.891 44.8218H123.062V42.1261H127.413V58.2434C127.413 59.5937 127.08 60.7252 126.414 61.6381C125.749 62.5509 124.831 63.2355 123.662 63.6919C122.492 64.1484 121.146 64.3766 119.625 64.3766ZM119.711 54.5207C120.776 54.5207 121.598 54.1261 122.178 53.3369C122.768 52.5477 123.062 51.4542 123.062 50.0564C123.062 49.1245 122.929 48.3163 122.663 47.6316C122.406 46.9375 122.031 46.4003 121.536 46.0199C121.042 45.63 120.433 45.4351 119.711 45.4351C118.988 45.4351 118.375 45.6348 117.871 46.0342C117.376 46.424 117.001 46.966 116.744 47.6602C116.487 48.3543 116.359 49.153 116.359 50.0564C116.359 50.9692 116.487 51.7632 116.744 52.4383C117.001 53.1039 117.376 53.6174 117.871 53.9787C118.375 54.3401 118.988 54.5207 119.711 54.5207ZM140.221 51.2973V42.1261H144.628V58.0723H140.392V55.1768H140.221C139.86 56.0992 139.265 56.8504 138.438 57.4304C137.611 58.0009 136.598 58.2815 135.4 58.2719C134.335 58.2719 133.394 58.0342 132.576 57.5588C131.768 57.0738 131.135 56.3845 130.679 55.4906C130.232 54.5968 130.009 53.5271 130.009 52.2814V42.1261H134.416V51.5112C134.416 52.4431 134.668 53.1848 135.172 53.7363C135.676 54.2783 136.346 54.5445 137.183 54.535C137.715 54.535 138.21 54.4161 138.666 54.1784C139.123 53.9312 139.494 53.5651 139.779 53.0802C140.074 52.5952 140.221 52.0009 140.221 51.2973ZM151.646 36.8202V58.0723H147.239V36.8202H151.646ZM158.792 58.3718C157.784 58.3718 156.876 58.1959 156.067 57.8441C155.269 57.4827 154.641 56.9502 154.185 56.2466C153.728 55.5429 153.5 54.6681 153.5 53.6222C153.5 52.7283 153.662 51.9867 153.985 51.3971C154.308 50.7981 154.75 50.3131 155.311 49.9423C155.872 49.5714 156.51 49.2909 157.223 49.1007C157.936 48.9106 158.692 48.7774 159.491 48.7014C160.413 48.6158 161.155 48.5302 161.716 48.4446C162.277 48.3591 162.685 48.2307 162.942 48.0595C163.208 47.8789 163.342 47.6221 163.342 47.2893V47.218C163.342 46.5619 163.132 46.0532 162.714 45.6919C162.305 45.3305 161.725 45.1499 160.974 45.1499C160.185 45.1499 159.552 45.3258 159.077 45.6776C158.611 46.0199 158.302 46.4573 158.15 46.9898L154.056 46.6617C154.265 45.6919 154.674 44.8551 155.283 44.1514C155.891 43.4383 156.676 42.8915 157.636 42.5112C158.606 42.1213 159.728 41.9264 161.002 41.9264C161.887 41.9264 162.733 42.031 163.541 42.2402C164.35 42.4494 165.067 42.7727 165.695 43.2101C166.332 43.638 166.836 44.1942 167.207 44.8789C167.578 45.5635 167.763 46.3765 167.763 47.3178V58.0723H163.556V55.8472H163.441C163.185 56.3512 162.842 56.7933 162.414 57.1737C161.987 57.5445 161.473 57.8393 160.874 58.058C160.275 58.2672 159.581 58.3718 158.792 58.3718ZM160.061 55.3195C160.708 55.3195 161.278 55.1911 161.773 54.9344C162.277 54.6681 162.666 54.3163 162.942 53.8789C163.227 53.432 163.37 52.9328 163.37 52.3813V50.684C163.237 50.7695 163.047 50.8504 162.8 50.9264C162.562 51.0025 162.296 51.0691 162.001 51.1261C161.706 51.1832 161.411 51.2355 161.117 51.283C160.822 51.321 160.556 51.3591 160.318 51.3971C159.795 51.4732 159.338 51.5968 158.949 51.768C158.559 51.9296 158.254 52.1531 158.036 52.4383C157.827 52.7141 157.722 53.0611 157.722 53.4795C157.722 54.0786 157.941 54.535 158.378 54.8488C158.815 55.1626 159.376 55.3195 160.061 55.3195ZM170.345 58.0723V42.1261H174.609V44.9216H174.781C175.075 43.9327 175.565 43.1863 176.25 42.6823C176.934 42.1689 177.719 41.9121 178.603 41.9121C178.831 41.9121 179.069 41.9264 179.316 41.9549C179.573 41.9739 179.801 42.012 180.001 42.069V45.9771C179.792 45.9106 179.502 45.8583 179.131 45.8202C178.77 45.7727 178.432 45.7489 178.118 45.7489C177.481 45.7489 176.906 45.8915 176.392 46.1768C175.879 46.4526 175.475 46.8424 175.18 47.3464C174.895 47.8408 174.752 48.4114 174.752 49.058V58.0723H170.345ZM191.554 48.8583V58.0723H187.147V42.1261H191.483V44.9644H191.64C192.001 44.0231 192.576 43.2814 193.366 42.7394C194.155 42.1974 195.144 41.9264 196.332 41.9264C197.435 41.9264 198.396 42.1689 199.213 42.6538C200.041 43.1387 200.683 43.8281 201.139 44.722C201.595 45.6158 201.824 46.6855 201.824 47.9312V58.0723H197.416V48.7156C197.416 47.7457 197.164 46.985 196.66 46.4335C196.156 45.8725 195.462 45.592 194.578 45.592C193.988 45.592 193.465 45.7251 193.009 45.9914C192.553 46.2481 192.196 46.619 191.939 47.1039C191.682 47.5888 191.554 48.1736 191.554 48.8583ZM208.969 58.3718C207.961 58.3718 207.053 58.1959 206.245 57.8441C205.446 57.4827 204.819 56.9502 204.362 56.2466C203.906 55.5429 203.678 54.6681 203.678 53.6222C203.678 52.7283 203.839 51.9867 204.163 51.3971C204.486 50.7981 204.928 50.3131 205.489 49.9423C206.05 49.5714 206.687 49.2909 207.4 49.1007C208.114 48.9106 208.87 48.7774 209.668 48.7014C210.591 48.6158 211.332 48.5302 211.893 48.4446C212.454 48.3591 212.863 48.2307 213.12 48.0595C213.386 47.8789 213.519 47.6221 213.519 47.2893V47.218C213.519 46.5619 213.31 46.0532 212.892 45.6919C212.483 45.3305 211.903 45.1499 211.152 45.1499C210.362 45.1499 209.73 45.3258 209.255 45.6776C208.789 46.0199 208.48 46.4573 208.328 46.9898L204.234 46.6617C204.443 45.6919 204.852 44.8551 205.461 44.1514C206.069 43.4383 206.854 42.8915 207.814 42.5112C208.784 42.1213 209.906 41.9264 211.18 41.9264C212.065 41.9264 212.911 42.031 213.719 42.2402C214.527 42.4494 215.245 42.7727 215.873 43.2101C216.51 43.638 217.014 44.1942 217.385 44.8789C217.756 45.5635 217.941 46.3765 217.941 47.3178V58.0723H213.733V55.8472H213.619C213.362 56.3512 213.02 56.7933 212.592 57.1737C212.164 57.5445 211.651 57.8393 211.052 58.058C210.453 58.2672 209.759 58.3718 208.969 58.3718ZM210.239 55.3195C210.885 55.3195 211.456 55.1911 211.95 54.9344C212.454 54.6681 212.844 54.3163 213.12 53.8789C213.405 53.432 213.548 52.9328 213.548 52.3813V50.684C213.415 50.7695 213.225 50.8504 212.977 50.9264C212.74 51.0025 212.473 51.0691 212.179 51.1261C211.884 51.1832 211.589 51.2355 211.294 51.283C211 51.321 210.733 51.3591 210.496 51.3971C209.973 51.4732 209.516 51.5968 209.126 51.768C208.736 51.9296 208.432 52.1531 208.213 52.4383C208.004 52.7141 207.9 53.0611 207.9 53.4795C207.9 54.0786 208.118 54.535 208.556 54.8488C208.993 55.1626 209.554 55.3195 210.239 55.3195ZM226.413 58.0723V36.8202H234.786C236.393 36.8202 237.762 37.1292 238.894 37.7473C240.035 38.3558 240.905 39.2021 241.504 40.2861C242.112 41.3701 242.417 42.6205 242.417 44.0373C242.417 45.4446 242.112 46.6855 241.504 47.76C240.895 48.8345 240.011 49.676 238.851 50.2846C237.7 50.8836 236.307 51.1832 234.672 51.1832H229.337V47.5888H233.944C234.809 47.5888 235.523 47.4367 236.084 47.1324C236.654 46.8281 237.077 46.4098 237.353 45.8773C237.638 45.3448 237.781 44.7315 237.781 44.0373C237.781 43.3242 237.638 42.7061 237.353 42.1831C237.077 41.6506 236.654 41.237 236.084 40.9422C235.513 40.6474 234.795 40.5001 233.93 40.5001H230.892V58.0723H226.413ZM244.314 58.0723V42.1261H248.578V44.9216H248.749C249.044 43.9327 249.534 43.1863 250.218 42.6823C250.903 42.1689 251.688 41.9121 252.572 41.9121C252.8 41.9121 253.038 41.9264 253.285 41.9549C253.542 41.9739 253.77 42.012 253.97 42.069V45.9771C253.76 45.9106 253.47 45.8583 253.1 45.8202C252.738 45.7727 252.401 45.7489 252.087 45.7489C251.45 45.7489 250.875 45.8915 250.361 46.1768C249.848 46.4526 249.443 46.8424 249.149 47.3464C248.863 47.8408 248.721 48.4114 248.721 49.058V58.0723H244.314ZM259.375 58.3718C258.367 58.3718 257.459 58.1959 256.651 57.8441C255.852 57.4827 255.225 56.9502 254.768 56.2466C254.312 55.5429 254.084 54.6681 254.084 53.6222C254.084 52.7283 254.245 51.9867 254.569 51.3971C254.892 50.7981 255.334 50.3131 255.895 49.9423C256.456 49.5714 257.093 49.2909 257.806 49.1007C258.52 48.9106 259.276 48.7774 260.074 48.7014C260.997 48.6158 261.738 48.5302 262.299 48.4446C262.86 48.3591 263.269 48.2307 263.526 48.0595C263.792 47.8789 263.925 47.6221 263.925 47.2893V47.218C263.925 46.5619 263.716 46.0532 263.298 45.6919C262.889 45.3305 262.309 45.1499 261.558 45.1499C260.768 45.1499 260.136 45.3258 259.661 45.6776C259.195 46.0199 258.886 46.4573 258.734 46.9898L254.64 46.6617C254.849 45.6919 255.258 44.8551 255.867 44.1514C256.475 43.4383 257.26 42.8915 258.22 42.5112C259.19 42.1213 260.312 41.9264 261.586 41.9264C262.471 41.9264 263.317 42.031 264.125 42.2402C264.933 42.4494 265.651 42.7727 266.279 43.2101C266.916 43.638 267.42 44.1942 267.791 44.8789C268.162 45.5635 268.347 46.3765 268.347 47.3178V58.0723H264.139V55.8472H264.025C263.768 56.3512 263.426 56.7933 262.998 57.1737C262.57 57.5445 262.057 57.8393 261.458 58.058C260.859 58.2672 260.165 58.3718 259.375 58.3718ZM260.645 55.3195C261.291 55.3195 261.862 55.1911 262.356 54.9344C262.86 54.6681 263.25 54.3163 263.526 53.8789C263.811 53.432 263.954 52.9328 263.954 52.3813V50.684C263.821 50.7695 263.631 50.8504 263.383 50.9264C263.146 51.0025 262.879 51.0691 262.585 51.1261C262.29 51.1832 261.995 51.2355 261.7 51.283C261.406 51.321 261.139 51.3591 260.902 51.3971C260.379 51.4732 259.922 51.5968 259.532 51.768C259.142 51.9296 258.838 52.1531 258.619 52.4383C258.41 52.7141 258.306 53.0611 258.306 53.4795C258.306 54.0786 258.524 54.535 258.962 54.8488C259.399 55.1626 259.96 55.3195 260.645 55.3195ZM260.103 40.1435L262.085 35.7932H266.136L263.169 40.1435H260.103ZM279.387 42.1261V45.4636H269.787V42.1261H279.387ZM271.97 38.3321H276.377V53.1657C276.377 53.6982 276.496 54.0928 276.734 54.3496C276.971 54.5968 277.352 54.7204 277.875 54.7204C278.046 54.7204 278.236 54.7062 278.445 54.6776C278.654 54.6491 278.835 54.6158 278.987 54.5778L279.686 57.8868C279.201 58.0295 278.73 58.1341 278.274 58.2006C277.827 58.2672 277.385 58.3005 276.948 58.3005C275.36 58.3005 274.133 57.9059 273.268 57.1166C272.402 56.3179 271.97 55.1959 271.97 53.7505V38.3321ZM281.312 58.0723V42.1261H285.719V58.0723H281.312ZM283.509 40.0864C282.853 40.0864 282.292 39.8677 281.826 39.4303C281.36 38.9929 281.127 38.4652 281.127 37.8471C281.127 37.229 281.36 36.7061 281.826 36.2782C282.292 35.8408 282.853 35.6221 283.509 35.6221C284.174 35.6221 284.74 35.8408 285.206 36.2782C285.672 36.7061 285.905 37.229 285.905 37.8471C285.905 38.4652 285.672 38.9929 285.206 39.4303C284.74 39.8677 284.174 40.0864 283.509 40.0864ZM295.504 58.3861C293.878 58.3861 292.48 58.039 291.311 57.3448C290.141 56.6412 289.242 55.6761 288.615 54.4494C287.987 53.2133 287.673 51.787 287.673 50.1705C287.673 48.535 287.987 47.0991 288.615 45.863C289.252 44.6269 290.155 43.6617 291.325 42.9676C292.494 42.2734 293.887 41.9264 295.504 41.9264C296.892 41.9264 298.105 42.1784 299.141 42.6823C300.187 43.1863 301.014 43.8947 301.623 44.8075C302.231 45.7204 302.564 46.7949 302.621 48.031H298.456C298.38 47.4985 298.219 47.0326 297.971 46.6332C297.724 46.2339 297.396 45.9248 296.987 45.7061C296.578 45.4874 296.103 45.3781 295.561 45.3781C294.876 45.3781 294.277 45.5635 293.764 45.9343C293.26 46.2957 292.865 46.8329 292.58 47.5461C292.304 48.2497 292.166 49.1055 292.166 50.1134C292.166 51.1214 292.304 51.9867 292.58 52.7093C292.865 53.432 293.26 53.9835 293.764 54.3638C294.277 54.7442 294.876 54.9344 295.561 54.9344C296.322 54.9344 296.964 54.6967 297.487 54.2212C298.01 53.7363 298.333 53.0707 298.456 52.2244H302.621C302.555 53.4415 302.227 54.516 301.637 55.4478C301.048 56.3702 300.235 57.0929 299.198 57.6158C298.162 58.1293 296.93 58.3861 295.504 58.3861ZM309.068 58.3718C308.06 58.3718 307.152 58.1959 306.344 57.8441C305.545 57.4827 304.918 56.9502 304.461 56.2466C304.005 55.5429 303.777 54.6681 303.777 53.6222C303.777 52.7283 303.938 51.9867 304.262 51.3971C304.585 50.7981 305.027 50.3131 305.588 49.9423C306.149 49.5714 306.786 49.2909 307.499 49.1007C308.212 48.9106 308.968 48.7774 309.767 48.7014C310.689 48.6158 311.431 48.5302 311.992 48.4446C312.553 48.3591 312.962 48.2307 313.219 48.0595C313.485 47.8789 313.618 47.6221 313.618 47.2893V47.218C313.618 46.5619 313.409 46.0532 312.991 45.6919C312.582 45.3305 312.002 45.1499 311.25 45.1499C310.461 45.1499 309.829 45.3258 309.353 45.6776C308.888 46.0199 308.579 46.4573 308.426 46.9898L304.333 46.6617C304.542 45.6919 304.951 44.8551 305.559 44.1514C306.168 43.4383 306.953 42.8915 307.913 42.5112C308.883 42.1213 310.005 41.9264 311.279 41.9264C312.163 41.9264 313.01 42.031 313.818 42.2402C314.626 42.4494 315.344 42.7727 315.972 43.2101C316.609 43.638 317.113 44.1942 317.483 44.8789C317.854 45.5635 318.04 46.3765 318.04 47.3178V58.0723H313.832V55.8472H313.718C313.461 56.3512 313.119 56.7933 312.691 57.1737C312.263 57.5445 311.75 57.8393 311.151 58.058C310.552 58.2672 309.857 58.3718 309.068 58.3718ZM310.338 55.3195C310.984 55.3195 311.555 55.1911 312.049 54.9344C312.553 54.6681 312.943 54.3163 313.219 53.8789C313.504 53.432 313.647 52.9328 313.647 52.3813V50.684C313.514 50.7695 313.323 50.8504 313.076 50.9264C312.838 51.0025 312.572 51.0691 312.277 51.1261C311.983 51.1832 311.688 51.2355 311.393 51.283C311.098 51.321 310.832 51.3591 310.594 51.3971C310.071 51.4732 309.615 51.5968 309.225 51.768C308.835 51.9296 308.531 52.1531 308.312 52.4383C308.103 52.7141 307.998 53.0611 307.998 53.4795C307.998 54.0786 308.217 54.535 308.655 54.8488C309.092 55.1626 309.653 55.3195 310.338 55.3195Z" fill="#E7C0FF"/>
<defs>
<linearGradient id="paint0_linear_7384_155" x1="-11.2584" y1="6.65055" x2="55.6833" y2="43.5995" gradientUnits="userSpaceOnUse">
<stop stop-color="#EF1B60"/>
<stop offset="0.5" stop-color="#FF3BDB"/>
<stop offset="1" stop-color="#8B36E4"/>
</linearGradient>
<clipPath id="clip0_7384_155">
<rect width="58.4219" height="61.8276" fill="white" transform="translate(0 2.08643)"/>
</clipPath>
</defs>
</svg>
